<svg width="16" height="16" viewBox="0 0 16 16" xmlns="http://www.w3.org/2000/svg">
    <g fill="#D2B887" fill-rule="nonzero">
        <path d="M8 2.609a.349.349 0 0 0 .348-.348v-.174A.349.349 0 0 0 8 1.739a.349.349 0 0 0-.348.348v.174c0 .191.157.348.348.348zM8 13.391a.349.349 0 0 0-.348.348v.174c0 .191.157.348.348.348a.349.349 0 0 0 .348-.348v-.174A.349.349 0 0 0 8 13.391zM2.26 7.652h-.173A.349.349 0 0 0 1.739 8c0 .191.157.348.348.348h.174A.349.349 0 0 0 2.609 8a.349.349 0 0 0-.348-.348zM13.913 7.652h-.174a.349.349 0 0 0-.348.348c0 .191.157.348.348.348h.174A.349.349 0 0 0 14.261 8a.349.349 0 0 0-.348-.348zM4.07 3.583a.336.336 0 0 0-.487 0 .336.336 0 0 0 0 .487l.121.121c.07.07.157.105.244.105a.343.343 0 0 0 .243-.105.336.336 0 0 0 0-.487l-.121-.121zM3.704 11.809l-.121.121a.336.336 0 0 0 0 .487c.07.07.156.105.243.105a.343.343 0 0 0 .244-.105l.121-.121a.336.336 0 0 0 0-.487.336.336 0 0 0-.487 0zM11.93 3.583l-.121.121a.336.336 0 0 0 0 .487c.07.07.156.105.243.105a.343.343 0 0 0 .244-.105l.121-.121a.336.336 0 0 0 0-.487.336.336 0 0 0-.487 0zM8.348 7.86V4.697A.349.349 0 0 0 8 4.348a.349.349 0 0 0-.348.348V8c0 .087.035.174.105.243l3.808 3.81c.07.069.157.104.244.104a.343.343 0 0 0 .243-.105.336.336 0 0 0 0-.487L8.348 7.861z"/>
        <path d="M8 0a8.001 8.001 0 0 0 0 16A8.001 8.001 0 0 0 8 0zm0 15.304A7.303 7.303 0 0 1 .696 8 7.303 7.303 0 0 1 8 .696 7.303 7.303 0 0 1 15.304 8 7.303 7.303 0 0 1 8 15.304z"/>
    </g>
</svg>
