<svg width="32" height="31" viewBox="0 0 32 31" xmlns="http://www.w3.org/2000/svg">
    <g fill="#CEC7BC" fill-rule="nonzero">
        <circle cx="21.29" cy="4.384" r="1.102"/>
        <circle cx="24.977" cy="4.401" r="1.102"/>
        <circle cx="28.611" cy="4.384" r="1.102"/>
        <path d="M20.048 0c-1.17 0-2.122.989-2.122 2.203v7.32c0 .932.545 1.744 1.388 2.067.247.095.5.14.749.14.572 0 1.123-.244 1.537-.704l1.2-1.334h7.078c1.17 0 2.122-.988 2.122-2.203V2.203C32 .99 31.048 0 29.878 0h-9.83zm10.483 2.203V7.49c0 .405-.293.734-.653.734h-7.406a.735.735 0 0 0-.547.244l-1.418 1.577a.586.586 0 0 1-.668.175c-.215-.083-.445-.309-.445-.697V2.203c0-.404.293-.734.653-.734h9.83c.36 0 .654.329.654.734z"/>
        <path d="M2.439 24.394h3.267v-1.938c1.05 2.676 3.188 4.336 5.839 4.336h.02c2.652 0 4.79-1.661 5.84-4.337v1.204c0 3.418-1.106 4.672-4.322 4.78a1.7 1.7 0 0 0-1.527-.96 1.705 1.705 0 1 0 0 3.41 1.7 1.7 0 0 0 1.533-.97.77.77 0 0 0 .137-.013c3.712-.161 5.434-1.846 5.63-5.512h1.816a2.441 2.441 0 0 0 2.44-2.439v-3.82a2.441 2.441 0 0 0-2.44-2.438h-1.797v-1.39a5.856 5.856 0 0 0-5.85-5.849h-2.94a5.856 5.856 0 0 0-5.849 5.85v1.389H2.44A2.441 2.441 0 0 0 0 18.136v3.82a2.44 2.44 0 0 0 2.439 2.438zm16.435-7.23h1.798c.535 0 .97.436.97.97v3.82c0 .535-.436.97-.97.97h-1.798v-5.76zm-2.268 2.24-.004.035c-.238 2.715-1.7 5.884-5.04 5.884h-.016c-3.336 0-4.798-3.169-5.041-5.919-.228-1.67.136-3.15 1.023-4.166.888-1.017 2.277-1.554 4.018-1.554h.021c1.738 0 3.127.537 4.016 1.554.887 1.016 1.25 2.495 1.023 4.166zM5.705 14.306a4.386 4.386 0 0 1 4.38-4.38h2.94a4.386 4.386 0 0 1 4.38 4.38v1.015c-.2-.378-.438-.73-.717-1.05-1.176-1.345-2.947-2.056-5.12-2.056h-.025c-2.175 0-3.945.71-5.122 2.057-.28.319-.516.671-.717 1.048v-1.014zm-4.237 3.829c0-.535.436-.97.97-.97h1.798v5.76H2.44a.971.971 0 0 1-.97-.97v-3.82z"/>
    </g>
</svg>
