<?xml version="1.0" encoding="UTF-8"?>
<svg width="32px" height="32px" viewBox="0 0 32 32" version="1.1" xmlns="http://www.w3.org/2000/svg" xmlns:xlink="http://www.w3.org/1999/xlink">
    <title>9BA279AB-ED41-4BF8-8AA4-A70DE7769129</title>
    <g id="desktop" stroke="none" stroke-width="1" fill="none" fill-rule="evenodd">
        <g id="lastnosti-produkta" transform="translate(-76.000000, -371.000000)" fill="#CAB180" fill-rule="nonzero">
            <g id="easy" transform="translate(76.000000, 371.000000)">
                <ellipse id="Oval" transform="translate(1.604262, 14.004651) rotate(-5.049166) translate(-1.604262, -14.004651) " cx="1.60426195" cy="14.0046507" rx="1" ry="1"></ellipse>
                <path d="M9.50482867,18.9062205 L13.3797521,18.0176389 C13.8610516,17.907358 14.2652289,17.6046441 14.5177699,17.1650726 C14.7613691,16.741149 14.8338342,16.2384888 14.7218766,15.7497379 C14.6593468,15.4765813 14.543291,15.2301878 14.3889224,15.0192506 C15.0152141,14.5949545 15.3393508,13.8020615 15.1539967,12.9928376 C15.0981111,12.7488036 14.9995661,12.5261304 14.8693526,12.3309654 C15.1910675,12.177963 15.4603742,11.9283405 15.6467838,11.6038933 C15.8903831,11.1799698 15.9629102,10.6773095 15.8509527,10.1884965 C15.7974887,9.9549567 15.7053396,9.74079054 15.5838814,9.55127615 L17.2800104,9.16268472 C17.283053,9.16200167 17.2860336,9.16131863 17.2890763,9.16057349 C18.2822881,8.9173468 18.8751105,7.91773912 18.6387143,6.88491055 C18.6384659,6.88379283 18.6382175,6.88261302 18.6379691,6.88155741 C18.401635,5.85667701 17.4133287,5.20560939 16.4347091,5.4294624 L9.77500465,6.95917634 C9.73569842,6.71712946 9.68682954,6.49892711 9.6451016,6.32543327 C9.45434531,5.53229196 9.14306234,4.74008208 8.71982182,3.9707853 C8.55483501,3.67092784 8.34501551,3.32518206 8.03969368,3.03507354 C7.35298345,2.38245354 6.28097283,2.24789336 5.54620096,2.72198981 C5.00088138,3.07382091 4.74436633,3.71706453 4.89258744,4.36074283 L5.06477729,5.10861678 C5.23193742,5.83475742 5.1554983,6.63795815 4.86992272,7.15502443 C4.70214163,7.45879389 4.41395805,7.74213405 4.03648166,7.97443199 C3.52165079,8.29124143 2.72130645,8.58482728 1.78298668,8.80116678 L0.483335259,9.10083795 C0.148269846,9.17808432 -0.0609287032,9.51240459 0.0158829934,9.84790467 L0.367341524,11.3828346 C0.444339506,11.719204 0.791699758,11.9315694 1.12589584,11.8486103 C1.45096393,11.7679487 1.65699563,11.4307721 1.58223307,11.1043379 L1.36980557,10.1766364 L2.0629116,10.0168656 C2.81749183,9.84293705 3.88565254,9.53177827 4.68935003,9.03719043 C5.25758272,8.68753266 5.68535618,8.25739958 5.96074816,7.75871345 C6.39963666,6.96395767 6.51873515,5.86866137 6.27929626,4.82869185 L6.10710642,4.08063162 C6.0894093,4.00381992 6.08077808,3.86131156 6.22160987,3.77046636 C6.50948297,3.58486397 6.94396271,3.7137114 7.18160084,3.93955145 C7.36322915,4.11217595 7.50921484,4.35627198 7.62806495,4.57230099 C7.99765526,5.24417048 8.26857639,5.93212261 8.43331481,6.61715627 C8.50186785,6.90223509 8.59383077,7.32839408 8.60053704,7.73592453 C8.60649818,8.12420549 8.98409876,8.42263476 9.36312754,8.33371451 L16.713268,6.64540956 C17.0234332,6.57400015 17.3416088,6.80636018 17.4235744,7.16216538 C17.4236985,7.16284842 17.4238848,7.16346937 17.424009,7.16415242 C17.5058504,7.52349704 17.3181989,7.8668211 16.9962977,7.94791736 L12.706144,8.93075935 C12.5620832,8.96398025 12.4316834,9.00968228 12.3250039,9.11778993 C12.202987,9.24142137 12.1365452,9.41448054 12.1457974,9.58816067 C12.1661025,9.96967325 12.5345751,10.2498466 12.9073322,10.1645899 L13.9346343,9.92924931 C14.2328773,9.87603377 14.5568277,10.1212475 14.6360611,10.4671796 C14.6776028,10.6486216 14.6528268,10.8314297 14.5663283,10.9819483 C14.4888335,11.116819 14.3695488,11.2087198 14.2296484,11.2407609 C14.2296484,11.2407609 12.5869834,11.6194792 12.4015673,11.6622628 C12.178832,11.7136154 11.9381512,11.7409373 11.7750272,11.9193367 C11.5189468,12.1994479 11.5766332,12.6562819 11.8947467,12.8634934 C12.1190343,13.0096033 12.3464889,12.9550837 12.586735,12.899819 C12.8035091,12.8498945 13.0202212,12.7998459 13.2369954,12.7499214 C13.5422551,12.6801885 13.8572017,12.9141009 13.9391052,13.2716448 C14.021878,13.6331006 13.8351579,13.9808955 13.5135051,14.0665248 L11.7477054,14.4721923 C11.6086122,14.5041713 11.4619435,14.5250974 11.3398023,14.6035857 C11.1462518,14.7278381 11.034791,14.9557893 11.0558412,15.1850446 C11.077202,15.4177772 11.230577,15.6229396 11.4477237,15.7088793 C11.6227699,15.7781775 11.7891849,15.7428453 11.9646658,15.7023593 L12.8163008,15.5066975 C13.1181453,15.4450991 13.4263235,15.6762793 13.5069851,16.028483 C13.5485267,16.209925 13.5237508,16.3927331 13.4372522,16.5433139 C13.3597575,16.6781845 13.2404727,16.7700853 13.1013175,16.8019402 C13.1013175,16.8019402 9.18628056,17.7000844 9.17479296,17.7033754 C7.52517329,18.1829983 5.31725615,17.5473303 5.00181281,17.4205941 C4.86787358,17.3450243 4.70903419,17.3208693 4.55596965,17.3561393 L3.09108304,17.6938128 L2.8460556,16.6237271 C2.76911971,16.2879165 2.43473734,16.0783454 2.09942355,16.1549708 C1.76392347,16.2319067 1.55429026,16.5664133 1.63116405,16.9022238 L2.0155951,18.5810903 C2.05254171,18.7424756 2.15208023,18.8825622 2.29229108,18.9704269 C2.43250192,19.0582915 2.60189748,19.0867932 2.76303438,19.0496603 L4.644952,18.6157394 C5.22982619,18.8307749 6.20875618,18.9923465 6.2212994,18.9943335 C6.83622764,19.0931269 7.65228205,19.1709321 8.47907893,19.0936236 C8.82376909,19.06121 9.17026001,19.0020954 9.50482867,18.9062205 L9.50482867,18.9062205 Z" id="Path"></path>
                <path d="M15.3470506,21.1648694 C15.6919891,21.1648694 15.9716656,20.8852549 15.9716656,20.5402543 C15.9716656,20.1953157 15.6920512,19.9156392 15.3470506,19.9156392 L13.8329225,19.9156392 C13.487984,19.9156392 13.2083074,20.1952536 13.2083074,20.5402543 L13.2083074,24.1337004 C13.2083074,24.478639 13.4879219,24.7583155 13.8329225,24.7583155 L15.3470506,24.7583155 C15.6919891,24.7583155 15.9716656,24.4787011 15.9716656,24.1337004 C15.9716656,23.7887619 15.6920512,23.5090853 15.3470506,23.5090853 L14.4575376,23.5090853 L14.4575376,22.9615303 L15.2354035,22.9615303 C15.580342,22.9615303 15.8600186,22.6819159 15.8600186,22.3369153 C15.8600186,21.9919767 15.5804041,21.7123002 15.2354035,21.7123002 L14.4575376,21.7123002 L14.4575376,21.1647452 L15.3470506,21.1647452 L15.3470506,21.1648694 Z" id="Path"></path>
                <path d="M28.932351,20.009465 C28.6432981,19.8213167 28.2563832,19.9030339 28.0681107,20.1921489 L27.4418812,21.1541269 L26.8072688,20.1822137 C26.6186858,19.893347 26.2315226,19.8120645 25.9427801,20.0007096 C25.6539135,20.1892925 25.572693,20.5763316 25.761276,20.8651982 L26.8175766,22.482901 L26.8134783,24.1487275 C26.8126089,24.493666 27.0916024,24.7740256 27.436541,24.7748328 L27.4380934,24.7748328 C27.7823488,24.7748328 28.061777,24.4962119 28.0626463,24.1517701 L28.0667446,22.4838945 L29.1149728,20.8736431 C29.3032453,20.5845902 29.2214039,20.1976754 28.932351,20.009465 L28.932351,20.009465 Z" id="Path"></path>
                <path d="M28.2829599,27.5467602 C28.6278985,27.5467602 28.907575,27.2671457 28.907575,26.9221451 C28.907575,26.5772066 28.6279606,26.29753 28.2829599,26.29753 L26.7688319,26.29753 C26.4238933,26.29753 26.1442168,26.5771445 26.1442168,26.9221451 L26.1442168,30.5155912 C26.1442168,30.8605298 26.4238312,31.1402063 26.7688319,31.1402063 L28.2829599,31.1402063 C28.6278985,31.1402063 28.907575,30.8605919 28.907575,30.5155912 C28.907575,30.1706527 28.6279606,29.8909762 28.2829599,29.8909762 L27.3934469,29.8909762 L27.3934469,29.3434212 L28.1713128,29.3434212 C28.5162514,29.3434212 28.7959279,29.0638067 28.7959279,28.7188061 C28.7959279,28.3738675 28.5163135,28.094191 28.1713128,28.094191 L27.3934469,28.094191 L27.3934469,27.5466981 L28.2829599,27.5466981 L28.2829599,27.5467602 Z" id="Path"></path>
                <path d="M20.0536764,26.2810127 C19.7087379,26.2810127 19.4290613,26.5606271 19.4290613,26.9056278 L19.4290613,29.3984995 C19.4290613,29.4920148 19.4290613,29.6661296 19.0892767,29.8372639 C18.9953267,29.8845804 18.8918762,29.9076177 18.7732745,29.9076177 C18.7729019,29.9076177 18.7724672,29.9076177 18.7720947,29.9076177 C18.6455448,29.9074314 18.5365678,29.8770048 18.4389542,29.8146612 C18.1794586,29.6488672 18.1583462,29.5292719 18.1583462,29.4011075 L18.1583462,26.9056278 C18.1583462,26.5606892 17.8787318,26.2810127 17.5337311,26.2810127 C17.1887305,26.2810127 16.9091161,26.5606271 16.9091161,26.9056278 L16.9091161,29.4011075 C16.9091161,30.0106335 17.197548,30.5039174 17.7663396,30.8672982 C18.0661349,31.0587996 18.4038704,31.1562269 18.770356,31.1567236 L18.7730882,31.1567236 C19.0871654,31.1567236 19.3825521,31.0881706 19.6511757,30.9528653 C20.3135446,30.6192901 20.6782915,30.0672643 20.6782915,29.3984375 L20.6782915,26.9055657 C20.6782915,26.5606271 20.3986149,26.2810127 20.0536764,26.2810127 L20.0536764,26.2810127 Z" id="Path"></path>
                <path d="M7.94549534,26.2810127 L5.94274057,26.2810127 C5.59780203,26.2810127 5.31812549,26.5606271 5.31812549,26.9056278 C5.31812549,27.2505663 5.59773993,27.5302429 5.94274057,27.5302429 L6.31549773,27.5302429 L6.31549773,30.5321706 C6.31549773,30.8771092 6.59511218,31.1567857 6.94011282,31.1567857 C7.28511345,31.1567857 7.5647279,30.8771713 7.5647279,30.5321706 L7.5647279,27.5302429 L7.94555743,27.5302429 C8.29049597,27.5302429 8.57017252,27.2506284 8.57017252,26.9056278 C8.57004832,26.5606271 8.29043388,26.2810127 7.94549534,26.2810127 L7.94549534,26.2810127 Z" id="Path"></path>
                <path d="M11.6307802,26.2810127 C10.2865445,26.2810127 9.19292474,27.3746324 9.19292474,28.7188682 C9.19292474,30.0631039 10.2865445,31.1567236 11.6307802,31.1567236 C12.9750159,31.1567236 14.0686357,30.0631039 14.0686357,28.7188682 C14.0686357,27.3746324 12.9750159,26.2810127 11.6307802,26.2810127 Z M11.6307802,29.9075556 C10.9753659,29.9075556 10.4420928,29.3742824 10.4420928,28.7188682 C10.4420928,28.0634539 10.9753659,27.5302429 11.6307802,27.5302429 C12.2861945,27.5302429 12.8194676,28.0634539 12.8194676,28.7188682 C12.8194055,29.3742824 12.2861945,29.9075556 11.6307802,29.9075556 Z" id="Shape"></path>
                <circle id="Oval" transform="translate(31.175593, 30.983479) rotate(-22.514113) translate(-31.175593, -30.983479) " cx="31.1755934" cy="30.9834788" r="1"></circle>
                <path d="M31.164982,28.8050562 C31.5099205,28.8050562 31.7895971,28.5254418 31.7895971,28.1804411 L31.7895971,25.5810141 C31.7895971,25.2360756 31.5099826,24.956399 31.164982,24.956399 C30.8199813,24.956399 30.5403669,25.2360135 30.5403669,25.5810141 L30.5403669,28.1804411 C30.5403669,28.5254418 30.8199813,28.8050562 31.164982,28.8050562 Z" id="Path"></path>
                <path d="M10.656942,3.64323341 C10.6900387,3.64528255 10.7225766,3.64472369 10.7545556,3.64174312 C11.0548477,3.61367612 11.2983228,3.37032524 11.3176965,3.05960112 L11.4670353,0.662728453 C11.4884581,0.318907625 11.227348,0.0227758697 10.8838377,0.0012288538 C10.5399548,-0.0201939719 10.2445061,0.241040311 10.2230211,0.584861139 L10.0736823,2.98173381 C10.0523216,3.32561673 10.3134317,3.62174848 10.656942,3.64323341 Z" id="Path"></path>
                <path d="M12.83406,5.08061186 C12.9611687,5.06875169 13.0858558,5.01777158 13.1887474,4.9265538 L14.9846633,3.33424795 C15.242296,3.10579991 15.2660785,2.71161992 15.0378167,2.45373877 C14.8094929,2.19585763 14.4156854,2.1718889 14.1581148,2.40033695 L12.3621989,3.9926428 C12.1045662,4.22109084 12.0807837,4.61527083 12.3090455,4.87315198 C12.4461516,5.02801727 12.6429311,5.09849527 12.83406,5.08061186 L12.83406,5.08061186 Z" id="Path"></path>
                <path d="M23.4977216,24.7748949 C22.8282117,24.7748949 22.1989395,24.5042222 21.7711661,24.0321749 C21.5394891,23.7765912 21.5589249,23.381604 21.8145085,23.149927 C22.0700921,22.9183121 22.4650793,22.9376237 22.6967563,23.1932694 C22.8854014,23.4014124 23.1848242,23.5256648 23.4977216,23.5256648 C23.7695121,23.5256648 23.9423229,23.3681915 23.962628,23.2544952 C23.9792074,23.1617872 23.8286267,23.0372243 23.5964529,22.9515951 C23.0287791,22.7422103 22.524256,22.5176121 22.5030816,22.5081737 C22.4730275,22.4947611 22.4440912,22.478989 22.4164588,22.4609814 C21.9776324,22.174909 21.7514819,21.6733665 21.8263066,21.1521399 C21.9054158,20.6009833 22.3056811,20.1529048 22.8708711,19.9825778 C23.9164292,19.6676933 24.808426,20.326647 24.9067226,20.4028377 C25.1793203,20.6142096 25.2289964,21.0065267 25.0176866,21.2791865 C24.8073704,21.5505423 24.4175991,21.6010257 24.1451877,21.393069 C24.1287946,21.3810226 23.666993,21.0473233 23.2312093,21.1787166 C23.133782,21.2080876 23.072432,21.2631039 23.0628693,21.3296699 C23.0582122,21.3622077 23.0669055,21.3828854 23.0773996,21.3959875 C23.2272973,21.4612495 23.6148331,21.6268573 24.0288214,21.7795492 C25.0430214,22.1536725 25.2948794,22.9001803 25.1924224,23.4740637 C25.0578001,24.2278367 24.3451341,24.7748949 23.4977216,24.7748949 L23.4977216,24.7748949 Z" id="Path"></path>
                <path d="M23.4975353,31.1567236 C22.8280255,31.1567236 22.1986912,30.8859888 21.7709798,30.4139415 C21.5393649,30.1582958 21.5588007,29.7633085 21.8143843,29.5316936 C22.0700921,29.3000166 22.4650172,29.3195145 22.6966321,29.5750981 C22.8852151,29.7832411 23.1846379,29.9074935 23.4975353,29.9074935 C23.7693258,29.9074935 23.9421366,29.7500202 23.9624417,29.636324 C23.9790211,29.5436159 23.8284404,29.419053 23.5963287,29.3334238 C23.0285928,29.1239769 22.5241318,28.8994409 22.5029574,28.8900024 C22.4729033,28.8765898 22.4439049,28.8608177 22.4163346,28.8428101 C21.9775082,28.5567377 21.7513577,28.0551952 21.8261824,27.5339686 C21.9052916,26.9828741 22.3054948,26.5347335 22.8706848,26.3644686 C23.9181679,26.0491494 24.8039551,26.7102765 24.9015066,26.7867156 C25.1730487,26.9995156 25.2206757,27.3920812 25.0078756,27.6636232 C24.796069,27.9339234 24.4061736,27.9822955 24.1348178,27.7729728 C24.1170586,27.7598707 23.6640745,27.4301455 23.231023,27.5605453 C23.1335957,27.5899163 23.0722457,27.6449326 23.062683,27.7114365 C23.0580259,27.7439744 23.0667192,27.764652 23.0772133,27.7778162 C23.227111,27.8430782 23.6147089,28.008686 24.0286351,28.16144 C25.0427731,28.5355012 25.2946931,29.2820091 25.192174,29.8558924 C25.0576138,30.6096654 24.3448857,31.1567236 23.4975353,31.1567236 L23.4975353,31.1567236 Z" id="Path"></path>
                <path d="M17.4119626,24.6684246 C17.338504,24.6684246 17.2638035,24.6552997 17.1910901,24.6275431 C16.8706171,24.5054641 16.7097286,24.1467404 16.8318076,23.8262674 L18.185606,20.2716928 C18.1874068,20.2670356 18.1892075,20.2623785 18.1911325,20.2577214 C18.2994885,19.9926993 18.5544512,19.8212546 18.8407098,19.8209441 L18.841517,19.8209441 C19.1274652,19.8209441 19.38249,19.9917058 19.4913427,20.2562932 C19.4936403,20.2619438 19.4958757,20.2675945 19.498049,20.2733072 L20.8395526,23.8280681 C20.9606381,24.1489137 20.798694,24.5072027 20.4778483,24.6282883 C20.1570027,24.7493117 19.7987137,24.5874297 19.6776282,24.266584 L18.8392195,22.0448818 L17.9923659,24.2683227 C17.8980434,24.5160202 17.662206,24.6684246 17.4119626,24.6684246 Z" id="Path"></path>
            </g>
        </g>
    </g>
</svg>