<?xml version="1.0" encoding="UTF-8"?>
<svg width="32px" height="32px" viewBox="0 0 32 32" version="1.1" xmlns="http://www.w3.org/2000/svg" xmlns:xlink="http://www.w3.org/1999/xlink">
    <title>3EA2982D-865E-40AA-B833-11FD26E9278F</title>
    <g id="desktop" stroke="none" stroke-width="1" fill="none" fill-rule="evenodd">
        <g id="lastnosti-produkta" transform="translate(-73.000000, -434.000000)" fill="#CAB180" fill-rule="nonzero">
            <g id="gift-box" transform="translate(73.000000, 434.000000)">
                <path d="M4.375,21.625 C4.03002931,21.625 3.75,21.9050293 3.75,22.25 C3.75,22.5949707 4.03002931,22.875 4.375,22.875 C4.71997069,22.875 5,22.5949707 5,22.25 C5,21.9050293 4.71997069,21.625 4.375,21.625 Z" id="Path"></path>
                <path d="M30.125,5 L28.0947266,5 C28.0842285,2.61572263 27.0766601,0 24.75,0 C23.7312012,0 23.1699219,0.404296875 22.5942383,0.84155275 C22.5893555,0.844970688 22.5842285,0.848632813 22.5793457,0.852539063 L19.3059082,3.38574219 C18.637207,2.810791 17.7082519,2.5 16.625,2.5 C15.6054688,2.5 14.7138672,2.78051756 14.0532226,3.298584 C12.7868652,2.31884763 11.1081543,1.01977538 10.6323242,0.6518555 C10.0812988,0.225341813 9.42041013,0 8.72119138,0 C6.38354494,0 5.38745119,2.6345215 5.376709,5 L1.875,5 C0.841064438,5 0,5.84106444 0,6.875 L0,11.875 C0,12.2202149 0.279785125,12.5 0.625,12.5 L1.25,12.5 L1.25,30.125 C1.25,31.1589356 2.09106444,32 3.125,32 L28.5,32 C29.5405274,32 30.75,31.1809082 30.75,30.125 L30.75,12.5 L31.375,12.5 C31.7202149,12.5 32,12.2202149 32,11.875 L32,6.875 C32,5.84106444 31.1589356,5 30.125,5 Z M23.3425293,1.84252931 C23.7211914,1.55566406 24.0556641,1.25 24.75,1.25 C26.4331055,1.25 26.9516601,3.88305663 26.8254394,5.57714844 C26.7019043,7.24975587 26.0493164,8.50390625 25.2019043,8.69824219 C24.4790039,8.86352538 24.0429688,8.64135744 23.4748535,8.30053712 L20.2424316,6.40136719 C20.2565918,6.35107425 20.2692871,6.30078125 20.2805176,6.25 L22.25,6.25 C22.5952149,6.25 22.875,5.97021487 22.875,5.625 C22.875,5.27978513 22.5952149,5 22.25,5 L20.2832031,5 C20.236084,4.784668 20.1643066,4.57568362 20.0686035,4.37597656 L23.3425293,1.84252931 Z M24.4333496,14.5605469 L22.7243653,14.1025391 C22.564209,14.0595703 22.3935547,14.0820312 22.25,14.1650391 C22.1064453,14.2478027 22.001709,14.3845215 21.9587403,14.5444336 L21.4675293,16.3786621 L17.5700684,8.6640625 C18.3317871,8.5200195 18.9787598,8.19750975 19.4609375,7.72290037 L24.4333496,14.5605469 Z M13.8574219,7.78808594 C14.3325195,8.22607425 14.9567871,8.52441406 15.6809082,8.6623535 L11.7827149,16.3786621 L11.2912597,14.5444336 C11.2019043,14.2111816 10.8591309,14.0131836 10.5258789,14.1025391 L8.84179687,14.5537109 L13.8574219,7.78808594 Z M16.625,9.56542969 L17.875,12.0397949 L17.875,30.75 L15.375,30.75 L15.375,12.0397949 L16.625,9.56542969 Z M19.1005873,5.625 C19.1005873,6.56396487 18.2993164,7.49072263 16.6489257,7.5 L16.6008301,7.5 C14.9104004,7.49096681 14.1479492,6.53784181 14.149412,5.62573244 C14.1503906,4.6831055 14.9545899,3.75 16.625,3.75 C18.3049316,3.75 19.1018066,4.68774413 19.1005873,5.625 Z M8.72119138,1.25 C9.14086913,1.25 9.5373535,1.38500975 9.86791994,1.64086913 C10.6726074,2.26342775 12.3955078,3.59667969 13.2458496,4.2543945 C13.1196289,4.48999025 13.0268555,4.74096681 12.9689941,5 L11,5 C10.6547851,5 10.375,5.27978513 10.375,5.625 C10.375,5.97021487 10.6547851,6.25 11,6.25 L12.9685059,6.25 C12.9882812,6.33862306 13.0117188,6.4262695 13.0395508,6.51269531 C13.0021973,6.534668 13.4355469,6.28002931 9.986084,8.30688475 C9.98291013,8.309082 9.97973631,8.31127931 9.97631838,8.31347656 L9.97607425,8.31274413 C9.435791,8.63476562 9.00756838,8.86694337 8.27026369,8.69824219 C7.42285156,8.50415038 6.7700195,7.24951175 6.64599613,5.57690431 C6.5200195,3.88427737 7.03759763,1.25 8.72119138,1.25 Z M1.25,6.875 C1.25,6.53027344 1.53027344,6.25 1.875,6.25 L5.46215819,6.25 C5.74536131,8.23388675 6.68627931,9.61767575 7.99121094,9.91674806 C9.592041,10.2827149 10.4399414,9.42724612 11.5024414,8.86596681 L9.73510744,11.25 L1.25,11.25 L1.25,6.875 Z M2.5,30.125 L2.5,12.5 L8.80834962,12.5 L6.77050781,15.2490234 C6.61206056,15.4626465 6.60620119,15.7529297 6.75585938,15.9729004 C6.90527344,16.1926269 7.17773438,16.2939453 7.43432619,16.2248535 L10.2456055,15.4716797 L10.9987793,18.282959 C11.065918,18.5332031 11.2805176,18.7163086 11.5380859,18.7429199 C11.7966309,18.7692871 12.043457,18.6342774 12.1604004,18.4030762 L14.125,14.5141601 L14.125,30.75 L3.125,30.75 C2.78027344,30.75 2.5,30.4697266 2.5,30.125 Z M29.5,30.125 C29.5,30.3662109 28.9541016,30.75 28.5,30.75 L19.125,30.75 L19.125,14.5141601 L21.0895996,18.4030762 C21.1967774,18.6149903 21.4135742,18.7463379 21.6474609,18.7463379 C21.9301758,18.7463379 22.1779785,18.5566406 22.2512207,18.282959 L23.0043945,15.4716797 L25.8156738,16.2250976 C26.0715332,16.2937012 26.3427734,16.1936035 26.4926758,15.9750976 C26.6425781,15.7568359 26.6386719,15.4677734 26.4829101,15.2536621 L24.4804688,12.5 L29.5,12.5 L29.5,30.125 Z M30.75,11.25 L23.5715332,11.25 L21.7392578,8.73046875 L22.8259277,9.3688965 C23.6374512,9.88330075 24.4331055,10.15625 25.480957,9.91674806 C26.7858887,9.61767575 27.7270507,8.23364256 28.0092774,6.25 L30.125,6.25 C30.4697266,6.25 30.75,6.53027344 30.75,6.875 L30.75,11.25 Z" id="Shape"></path>
                <path d="M4.375,24.125 C4.02978513,24.125 3.75,24.4047851 3.75,24.75 L3.75,28.875 C3.75,29.2202149 4.02978513,29.5 4.375,29.5 C4.72021487,29.5 5,29.2202149 5,28.875 L5,24.75 C5,24.4047851 4.72021487,24.125 4.375,24.125 Z" id="Path"></path>
            </g>
        </g>
    </g>
</svg>