<svg width="16" height="16" viewBox="0 0 16 16" xmlns="http://www.w3.org/2000/svg">
    <path d="m15.897 8.601-1.176-1.866a.668.668 0 0 1-.087-.497l.466-2.155a.668.668 0 0 0-.448-.777l-2.1-.674a.668.668 0 0 1-.387-.324L11.137.357a.668.668 0 0 0-.843-.307L8.252.884a.669.669 0 0 1-.505 0L5.707.05a.668.668 0 0 0-.844.307l-1.028 1.95a.668.668 0 0 1-.387.325l-2.1.674a.668.668 0 0 0-.449.777l.467 2.155c.037.17.006.35-.088.497L.103 8.601a.668.668 0 0 0 .156.884l1.743 1.35a.668.668 0 0 1 .252.438l.299 2.185c.046.34.344.59.687.577l2.204-.085a.669.669 0 0 1 .474.172l1.633 1.482c.255.23.643.23.898 0l1.633-1.482c.13-.117.3-.18.475-.172l2.203.085a.668.668 0 0 0 .687-.577l.3-2.185a.668.668 0 0 1 .252-.437l1.742-1.351a.668.668 0 0 0 .156-.884zM6.15 10.553l-1.946-1.36.8 1.855-.533.23-1.227-2.843.558-.24L5.785 9.59l-.82-1.898.534-.23 1.227 2.843-.576.248zm1.182-.51L6.106 7.2l2.107-.91.208.481-1.534.662.272.63 1.427-.616.207.48-1.427.615.333.774 1.588-.686.207.48-2.162.933zm4.805-2.074-1.483-1.88.353 2.368-.623.268L8.48 6.176l.587-.254 1.272 1.768-.323-2.177.682-.294 1.355 1.77-.42-2.174.578-.25.536 3.141-.609.263z" fill="#BD7A96" fill-rule="nonzero"/>
</svg>
