<?xml version="1.0" encoding="UTF-8"?>
<svg width="24px" height="32px" viewBox="0 0 24 32" version="1.1" xmlns="http://www.w3.org/2000/svg" xmlns:xlink="http://www.w3.org/1999/xlink">
    <title>19BE1190-C71A-4F41-A80B-566878D44B24</title>
    <g id="desktop" stroke="none" stroke-width="1" fill="none" fill-rule="evenodd">
        <g id="lastnosti-produkta" transform="translate(-76.000000, -313.000000)" fill="#CAB180" fill-rule="nonzero">
            <g id="medal-(1)" transform="translate(76.000000, 313.000000)">
                <path d="M2.49999747,11.874988 C2.49999747,17.0444164 6.7055596,21.2499785 11.874988,21.2499785 C17.0444164,21.2499785 21.2499785,17.0444164 21.2499785,11.874988 C21.2499785,6.7055596 17.0444164,2.49999747 11.874988,2.49999747 C6.7055596,2.49999747 2.49999747,6.7055596 2.49999747,11.874988 Z M11.874988,3.74999621 C16.3552081,3.74999621 19.9999798,7.39476791 19.9999798,11.874988 C19.9999798,16.3552081 16.3552081,19.9999798 11.874988,19.9999798 C7.39476791,19.9999798 3.74999621,16.3552081 3.74999621,11.874988 C3.74999621,7.39476791 7.39476791,3.74999621 11.874988,3.74999621 Z" id="Shape"></path>
                <path d="M6.08690791,10.7607313 L8.5095129,13.1476918 L7.95214041,16.5024247 C7.91332207,16.7360671 8.00975753,16.9714184 8.20140772,17.1105784 C8.39281377,17.2497385 8.64647564,17.2685372 8.85668049,17.1596507 L11.874988,15.5922694 L14.8930513,17.1596507 C15.1015472,17.2678048 15.3552091,17.2509591 15.5483242,17.1105784 C15.7399744,16.9714184 15.8364098,16.7360671 15.7975915,16.5024247 L15.240219,13.1476918 L17.662824,10.7607313 C17.831525,10.5947159 17.8918276,10.3476458 17.8185855,10.1223042 C17.7453434,9.89720682 17.5512518,9.73290029 17.3171212,9.69749995 L13.955064,9.19139697 L12.4338253,6.14916373 C12.3281125,5.937494 12.11156,5.80370508 11.874988,5.80370508 C11.6381719,5.80370508 11.4218635,5.937494 11.3159066,6.14916373 L9.79466786,9.19139697 L6.43261069,9.69749995 C6.19848005,9.73265617 6.00438844,9.89720682 5.93114638,10.1223042 C5.85790421,10.3476458 5.91845102,10.5947159 6.08690791,10.7607313 L6.08690791,10.7607313 Z M10.3017474,10.3791399 C10.5029191,10.3488665 10.676747,10.2226459 10.7678114,10.0407614 L11.874988,7.82616397 L12.9821646,10.0407614 C13.073229,10.2226459 13.2470569,10.3488665 13.4482286,10.3791399 L15.8952476,10.7475478 L14.1318217,12.4846065 C13.9870464,12.6274286 13.9206403,12.8317742 13.9538433,13.0324575 L14.3596046,15.4741055 L12.1628295,14.3334816 C12.0727417,14.2866067 11.9738648,14.2631692 11.874988,14.2631692 C11.7761112,14.2631692 11.6772343,14.2866067 11.5869024,14.3334816 L9.39012727,15.4741055 L9.79588854,13.0324575 C9.82933576,12.8317742 9.76292958,12.6274286 9.61791022,12.4846065 L7.85472838,10.7475478 L10.3017474,10.3791399 Z" id="Shape"></path>
                <path d="M12.4999874,0.624999369 C12.4999874,0.970213895 12.2202025,1.24999874 11.874988,1.24999874 C11.5297735,1.24999874 11.2499886,0.970213895 11.2499886,0.624999369 C11.2499886,0.279784842 11.5297735,0 11.874988,0 C12.2202025,0 12.4999874,0.279784842 12.4999874,0.624999369 Z" id="Path"></path>
                <path d="M8.92943436,0.368407815 C3.67187129,1.71044752 0,6.44213218 0,11.874988 C0,15.2492522 1.41869975,18.4286923 3.90917574,20.680399 L0.143798667,27.3163787 C0.0227050396,27.5300015 0.0378417743,27.7946497 0.182372878,27.9928917 C0.326903982,28.1913778 0.573974045,28.2868367 0.814452302,28.2367879 L5.09057105,27.3488493 L6.59349922,31.5839525 C6.67504207,31.814421 6.88378211,31.9757978 7.12743418,31.9975263 C7.3710863,32.0192548 7.60472863,31.8964522 7.72557813,31.6838059 L11.874988,24.3888914 L16.0241538,31.6838059 C16.13597,31.8803389 16.3439776,32 16.567122,32 C16.5854325,32 16.6039871,31.9989911 16.6222976,31.9975263 C16.8659498,31.9757978 17.0746898,31.8141769 17.1564768,31.5839525 L18.6591608,27.3488493 L22.9352796,28.2367879 C23.1755137,28.2865926 23.4228279,28.1911336 23.567359,27.9928917 C23.7121342,27.7946497 23.7270268,27.5300015 23.6059332,27.3163787 L19.8405561,20.680399 C22.3310321,18.4286923 23.7497319,15.2492522 23.7497319,11.874988 C23.7497319,6.44213218 20.0778606,1.71044752 14.8205417,0.368407815 C14.4858252,0.282958714 14.1457376,0.48486276 14.0602885,0.81933511 C13.9748394,1.15380746 14.1767435,1.49413912 14.5112158,1.57958828 C19.2148243,2.78027063 22.4999773,7.01390892 22.4999773,11.874988 C22.4999773,17.7912418 17.6950505,22.4999773 11.874988,22.4999773 C6.05077514,22.4999773 1.24999874,17.7873355 1.24999874,11.874988 C1.24999874,7.01390892 4.53490754,2.78027063 9.23851604,1.57958828 C9.57298839,1.49413912 9.7748925,1.15380746 9.68968746,0.81933511 C9.60423836,0.48486276 9.26415077,0.282958714 8.92943436,0.368407815 Z M7.31468986,29.8783878 L6.0864196,26.4172096 C5.98192758,26.1227764 5.67626377,25.9506574 5.37035589,26.0141338 L1.91259569,26.7321507 L4.89257318,21.4802029 C6.63012024,22.7433852 8.68749122,23.5129157 10.8268934,23.7033452 L7.31468986,29.8783878 Z M18.3793759,26.0141338 C18.0737122,25.9506574 17.7678043,26.1227764 17.6633122,26.4172096 L16.4352861,29.8783878 L12.9228385,23.7033452 C15.0624848,23.5129157 17.1196116,22.7433852 18.8574028,21.4802029 L21.8373803,26.7321507 L18.3793759,26.0141338 Z" id="Shape"></path>
            </g>
        </g>
    </g>
</svg>