<?xml version="1.0"?>
<svg xmlns="http://www.w3.org/2000/svg" xmlns:xlink="http://www.w3.org/1999/xlink" xmlns:svgjs="http://svgjs.com/svgjs" version="1.1" width="512" height="512" x="0" y="0" viewBox="0 0 48 48" style="enable-background:new 0 0 512 512" xml:space="preserve" class=""><g><g xmlns="http://www.w3.org/2000/svg"><path d="m12 11h-7.053c-.552 0-1 .448-1 1s.448 1 1 1h7.053c.552 0 1-.448 1-1s-.448-1-1-1z" fill="#cab180" data-original="#000000" class=""/><path d="m9.157 17.913c0-.552-.448-1-1-1h-5.969c-.552 0-1 .448-1 1s.448 1 1 1h5.969c.552 0 1-.448 1-1z" fill="#cab180" data-original="#000000" class=""/><path d="m3.795 23c-.552 0-1 .448-1 1s.448 1 1 1h3.08c.552 0 1-.448 1-1s-.448-1-1-1z" fill="#cab180" data-original="#000000" class=""/><path d="m12.91 24.961c.189.214.462.336.748.336h9c.115 0 .228-.023.338-.063.043-.016.079-.042.119-.063.051-.027.105-.045.152-.081l4.33-3.33c.193-.149.293-.36.342-.581.013-.048.038-.09.044-.141l.99-8.36c.002-.018.002-.037.003-.055.01-.132.004-.266-.04-.397-.136-.405-.515-.678-.942-.68l-8.958-.042c-.251-.002-.439.072-.616.208l-4.374 3.375c-.009.007-.013.018-.022.025-.069.057-.123.128-.175.202-.021.03-.05.054-.068.086-.043.079-.066.17-.087.261-.007.032-.025.062-.03.095 0 .002-.001.003-.002.005l-1 8.42c-.031.282.058.567.248.78zm13.131-4.527-2.11 1.622.67-5.643 2.107-1.621zm-6.67-6.93 5.697.027-1.75 1.346h-5.727zm-3.825 3.373h6.986l-.762 6.42h-6.986z" fill="#cab180" data-original="#000000" class=""/><path d="m41.881 15.167c-.162-.357-.518-.587-.911-.587h-7.48v-5.07c0-1.919-1.48-3.48-3.3-3.48h-21.68c-1.528 0-2.878 1.137-3.208 2.704-.114.54.231 1.07.771 1.184.543.114 1.071-.231 1.185-.772.137-.646.663-1.116 1.252-1.116h21.68c.717 0 1.3.664 1.3 1.48v21.98h-14.591c-.465-2.279-2.484-4-4.899-4s-4.434 1.721-4.899 4h-1.591c-.717 0-1.3-.668-1.305-1.392l.15-1.51c.055-.549-.347-1.039-.896-1.094-.549-.06-1.039.347-1.094.896l-.155 1.61c0 1.924 1.48 3.49 3.3 3.49h1.591c.465 2.279 2.484 4 4.899 4s4.434-1.721 4.899-4h15.591 1.251c.465 2.279 2.484 4 4.899 4s4.434-1.721 4.899-4h1.251c.552 0 1-.448 1-1v-8.49c0-.143-.03-.283-.089-.413zm-29.881 20.323c-1.654 0-3-1.346-3-3s1.346-3 3-3 3 1.346 3 3-1.346 3-3 3zm28.326-18.91 2.857 6.298c-3.169-.638-5.72-3.123-6.416-6.298zm-1.686 18.91c-1.654 0-3-1.346-3-3s1.346-3 3-3 3 1.346 3 3-1.346 3-3 3zm5.15-8.677h-.443c-.391 0-.707.448-.707 1v.438c0 .552.317 1 .707 1h.443v2.24h-.251c-.465-2.279-2.484-4-4.899-4s-4.434 1.721-4.899 4h-.251v-14.911h1.232c.781 4.486 4.53 7.96 9.067 8.41v1.823z" fill="#cab180" data-original="#000000" class=""/><circle cx="12" cy="32.48" r="1" fill="#cab180" data-original="#000000" class=""/><circle cx="38.64" cy="32.48" r="1" fill="#cab180" data-original="#000000" class=""/></g></g></svg>
