<svg width="200" height="47" viewBox="0 0 200 47" xmlns="http://www.w3.org/2000/svg">
    <g fill="none" fill-rule="evenodd">
        <path fill="#ffffff" d="M84.8 8h1.03V3.64h1.38v-.919H83.42v.92H84.8zM89.078 4.924l1.016 2.001h.696l1.008-2.001V8h1.03V2.722h-1.015l-1.371 2.854-1.379-2.854h-1.016V8h1.03zM78.914 11.988c-3.868 0-7.365 1.581-9.885 4.13a13.857 13.857 0 0 0-9.886-4.13c-2.107 0-4.103.472-5.893 1.311a13.923 13.923 0 0 0-3.566 2.408 16.532 16.532 0 0 1 4.247 7.49 5.865 5.865 0 0 1 5.212-3.178 5.87 5.87 0 0 1 5.87 5.87v16.369h8.031V25.889a5.87 5.87 0 0 1 11.74 0v16.363h8.031V25.889c0-7.677-6.224-13.9-13.9-13.9M18.276 34.027l-.003.002c-.293.13-.596.24-.908.33l-.059.017c-.144.04-.29.077-.438.11l-.025.005c-.156.033-.313.06-.472.084l-.074.01c-.13.017-.262.03-.394.041l-.114.009a7.33 7.33 0 0 1-.47.017h-.004c-.125 0-.25-.004-.372-.01l-.028-.002a6.875 6.875 0 0 1-.342-.026 7.462 7.462 0 0 1-.376-.048l-.037-.007a7.167 7.167 0 0 1-.31-.055l-.041-.009a7.3 7.3 0 0 1-.55-.14c-.151-.043-.3-.09-.447-.144l-.03-.011a7.327 7.327 0 0 1-.334-.133l-.005-.002a7.226 7.226 0 0 1-.604-.292l-.03-.016a7.594 7.594 0 0 1-.277-.16l-.022-.013a7.284 7.284 0 0 1-.578-.391l-.001-.001a7.278 7.278 0 0 1-1.028-.934l-.001-.001a6.989 6.989 0 0 1-.438-.529l-.008-.01a6.63 6.63 0 0 1-.378-.554l-.016-.026a7.793 7.793 0 0 1-.156-.268l-.02-.037a7.516 7.516 0 0 1-.137-.265l-.025-.048a7.288 7.288 0 0 1-.119-.26l-.027-.061a7.07 7.07 0 0 1-.102-.256l-.029-.073a6.595 6.595 0 0 1-.086-.25l-.03-.085a8.513 8.513 0 0 1-.07-.244c-.01-.033-.02-.065-.028-.098l-.057-.24c-.008-.036-.018-.071-.025-.108-.017-.08-.031-.16-.045-.24l-.02-.113a6.571 6.571 0 0 1-.035-.256l-.014-.101a7.27 7.27 0 0 1-.03-.363s-.011-.31-.011-.443.004-.264.01-.395v-.048a7.303 7.303 0 0 1 2.65-5.204l.009-.007a6.65 6.65 0 0 1 .265-.208l.014-.011c.089-.066.178-.13.27-.192l.019-.013c.09-.06.181-.12.274-.176l.024-.014c.092-.056.185-.11.28-.161l.028-.015c.093-.051.188-.1.284-.146l.031-.016a7.249 7.249 0 0 1 .618-.261l.04-.015c.097-.036.196-.069.295-.1l.044-.014c.1-.031.2-.06.3-.086l.046-.012c.101-.026.203-.05.305-.07l.048-.012c.103-.02.207-.038.311-.055l.048-.008c.107-.016.214-.03.322-.041l.042-.005c.114-.012.228-.02.344-.026l.026-.002c.123-.007.247-.01.371-.01h.004c.158 0 .315.007.47.017l.115.008c.132.011.263.025.394.042l.074.01c.159.023.316.05.472.084l.025.005c.148.032.294.069.438.11a7.219 7.219 0 0 1 .966.347l.004.001a7.322 7.322 0 0 1 0 13.397zm34.984-6.953a15.26 15.26 0 0 0-4.4-10.49 15.262 15.262 0 0 0-10.725-4.565c-.062 0-.122-.005-.184-.005-.06 0-.121.004-.182.005a15.254 15.254 0 0 0-10.289 4.14c-.292.274-.576.558-.847.854-.27-.296-.555-.58-.847-.854a15.228 15.228 0 0 0-9.772-4.127 15.35 15.35 0 0 0-4.474.452l-3.534 3.533V0L0 8.007v19.322c0 5.812 3.237 10.867 8.006 13.461.25.136.507.264.765.387.074.035.15.067.224.1.008.005.017.008.026.012a13.574 13.574 0 0 0 .808.338c.043.017.087.032.131.048.148.055.296.11.446.16.082.028.163.057.246.083.273.087.55.17.83.242.281.072.566.135.853.191.087.018.174.032.261.047.192.034.384.065.578.092l.037.006c.101.014.202.027.304.039l.105.01c.154.017.308.031.463.044l.052.005c.093.007.185.015.279.021a15.246 15.246 0 0 0 11.372-4.116 15.258 15.258 0 0 0 4.843-11.17 7.32 7.32 0 0 1 7.323-7.323 7.323 7.323 0 1 1-6.476 10.742 16.472 16.472 0 0 1-3.996 7.751 15.274 15.274 0 0 0 9.773 4.127 15.343 15.343 0 0 0 4.064-.358c.12-.027.241-.053.36-.083l3.583-3.583v3.677h8.014V27.575l-.014-.5z"/>
        <path d="M190.151 12.01h.276c-2.296 4.775-4.96 7.346-10.285 7.346-9 0-10.653-6.795-17.082-6.795-4.316 0-6.98 1.836-9.183 6.152h-.275c2.295-4.775 4.959-7.346 10.285-7.346 7.071 0 8.908 6.795 17.081 6.795 4.316 0 6.98-1.836 9.183-6.153M98.69 41.903v-9.865h.874c.666 5.536 3.87 9.49 9.365 9.49 3.954 0 5.993-2.289 5.993-5.535 0-8.366-15.774-5.286-15.774-15.15 0-5.037 3.787-8.283 9.656-8.283 3.621 0 5.12 1.498 6.992 1.498.708 0 1.124-.582 1.124-1.498h.791v9.864h-.874c-.666-5.12-2.955-8.948-8.033-8.948-3.954 0-6.077 2.497-6.077 5.41 0 8.574 15.858 5.203 15.858 15.15 0 5.079-4.287 8.492-9.656 8.492-4.578 0-6.285-2.123-8.324-2.123-.708 0-1.124.582-1.124 1.498h-.79zM125.613 36.909c0 2.58 1.706 4.078 4.078 4.078 3.705 0 5.661-3.58 5.661-8.698 0-4.996-1.915-8.492-5.452-8.492-2.581 0-4.287 1.624-4.287 4.33v8.782zm-6.452 9.396v-.748h2.789V23.839h-2.789v-.79h6.452v1.83c1.04-1.373 2.705-2.288 5.077-2.288 5.245 0 8.533 4.078 8.533 9.53 0 5.578-3.787 9.99-8.824 9.99-2.164 0-3.746-.75-4.786-2.04v5.486h2.705v.748h-9.157zM144.41 16.014c-1.29 0-2.163-.874-2.163-2.206 0-1.248.998-2.205 2.164-2.205 1.331 0 2.248.915 2.248 2.164 0 1.331-1 2.247-2.248 2.247zm-4.494 26.097v-.791h2.789V23.84h-2.79v-.792h6.41V41.32h2.706v.791h-9.115zM165.233 36.991c-.25 3.206-2.705 5.537-6.784 5.537-5.161 0-8.866-4.454-8.866-9.907 0-5.452 3.996-10.03 9.282-10.03 4.329 0 6.285 2.539 6.285 4.91 0 1.416-.957 2.498-2.331 2.498-1.457 0-2.372-.999-2.372-2.206 0-1.373 1.248-2.123 2.372-2.123.333 0 .416-.082.416-.25 0-.831-1.415-1.872-3.746-1.872-3.704 0-6.035 3.33-6.035 8.865 0 5.078 2.498 8.824 6.327 8.824 2.206 0 4.287-1.54 4.578-4.246h.874zM179.283 30.665c.042-4.578-.916-7.2-3.371-7.2-2.747 0-4.37 3.162-4.87 7.2h8.241zm3.663 6.327c-.333 3.205-2.83 5.536-6.868 5.536-5.286 0-9.032-4.454-9.032-9.907 0-5.452 3.705-10.03 8.866-10.03 4.661 0 7.616 3.454 7.491 8.865H171v1.332c0 4.162 1.79 8.366 6.285 8.366 2.414 0 4.412-1.457 4.745-4.162h.916zM198.751 29.083c-.54-3.371-2.33-5.535-5.826-5.535-2.623 0-4.038 1.498-4.038 3.288 0 5.328 11.113 3.372 11.113 9.906 0 3.33-3.121 5.785-6.993 5.785-3.538 0-4.37-1.54-5.91-1.54-.457 0-.79.416-.79 1.124h-.791v-6.7h.666c.666 3.953 3.287 6.242 6.825 6.242 2.581 0 3.996-1.54 3.996-3.58 0-5.16-11.113-3.454-11.113-9.822 0-3.371 2.706-5.62 6.993-5.62 2.788 0 3.912 1.125 5.12 1.125.374 0 .748-.291.748-1h.667v6.327h-.667z" fill="#CBB075"/>
    </g>
</svg>
