<svg width="16" height="16" viewBox="0 0 16 16" xmlns="http://www.w3.org/2000/svg">
    <g fill="none" fill-rule="evenodd">
        <circle fill="#C8E28D" cx="8" cy="8" r="8"/>
        <g fill="#FFF">
            <path d="M10.5 3.5A.5.5 0 0 0 10 3H6a.5.5 0 0 0-.5.5v4A.5.5 0 0 0 6 8h4a.5.5 0 0 0 .5-.5v-4zm-3.875 1V5c0 .207.168.375.375.375h2A.375.375 0 0 0 9.375 5v-.5a.375.375 0 0 0-.75 0v.125h-1.25V4.5a.375.375 0 0 0-.75 0zM8 8.5a.5.5 0 0 0-.5-.5h-4a.5.5 0 0 0-.5.5v4a.5.5 0 0 0 .5.5h4a.5.5 0 0 0 .5-.5v-4zm-3.875 1v.5c0 .207.168.375.375.375h2A.375.375 0 0 0 6.875 10v-.5a.375.375 0 0 0-.75 0v.125h-1.25V9.5a.375.375 0 0 0-.75 0zM13 8.5a.5.5 0 0 0-.5-.5h-4a.5.5 0 0 0-.5.5v4a.5.5 0 0 0 .5.5h4a.5.5 0 0 0 .5-.5v-4zm-3.875 1v.5c0 .207.168.375.375.375h2a.375.375 0 0 0 .375-.375v-.5a.375.375 0 0 0-.75 0v.125h-1.25V9.5a.375.375 0 0 0-.75 0z"/>
        </g>
    </g>
</svg>
