<svg width="32" height="24" viewBox="0 0 32 24" xmlns="http://www.w3.org/2000/svg">
    <g fill="#CEC7BC" fill-rule="nonzero">
        <path d="M28.492 3.328H16.08a.886.886 0 1 0 0 1.773h12.412a.886.886 0 1 0 0-1.773zM28.492 6.375H20.85a.886.886 0 1 0 0 1.773h7.64a.886.886 0 1 0 0-1.773z"/>
        <path d="M29.34 0H2.66A2.663 2.663 0 0 0 0 2.66v17.998a2.662 2.662 0 0 0 2.66 2.66h26.68a2.663 2.663 0 0 0 2.66-2.66V2.66A2.663 2.663 0 0 0 29.34 0zm.887 20.658a.887.887 0 0 1-.887.887H2.66a.887.887 0 0 1-.887-.887v-.842h28.454v.842zm0-2.615H1.773v-1.362h28.454v1.362zm0-3.135H1.773V2.66c0-.489.397-.887.887-.887h26.68c.49 0 .887.398.887.887v12.248z"/>
        <path d="M10.599 2.794H3.83a.887.887 0 0 0-.887.886V8.5c0 .49.397.887.887.887h6.768c.49 0 .886-.397.886-.887V3.68a.887.887 0 0 0-.886-.886zm-.887 4.82H4.717V4.567h4.995v3.047z"/>
    </g>
</svg>
