<svg width="16" height="16" viewBox="0 0 16 16" xmlns="http://www.w3.org/2000/svg">
    <path d="M6.002 5.2a.8.8 0 1 0 0 1.6.8.8 0 0 0 0-1.6zm0 0a.8.8 0 1 0 0 1.6.8.8 0 0 0 0-1.6zm9.134.715A2.251 2.251 0 0 1 14.4 4.4a2.707 2.707 0 0 0-2.8-2.8 2.46 2.46 0 0 1-1.559-.78 2.775 2.775 0 0 0-2.04-.819 2.967 2.967 0 0 0-2.127.82c-.37.442-.898.722-1.471.78a2.707 2.707 0 0 0-2.8 2.799c0 .572-.448 1.14-.823 1.515A2.8 2.8 0 0 0 .004 8a2.8 2.8 0 0 0 .776 2.083c.375.376.823.944.823 1.516a2.707 2.707 0 0 0 2.8 2.8c.576.062 1.105.35 1.471.799.575.538 1.34.826 2.128.8a2.775 2.775 0 0 0 2.04-.8 2.46 2.46 0 0 1 1.559-.8 2.707 2.707 0 0 0 2.799-2.8c.04-.58.304-1.124.736-1.515a2.943 2.943 0 0 0 0-4.167zM6.002 4.4a1.6 1.6 0 1 1 0 3.199 1.6 1.6 0 0 1 0-3.2zm-.516 6.682a.4.4 0 0 1-.568 0 .4.4 0 0 1 0-.568l5.599-5.598a.402.402 0 0 1 .568.568l-5.599 5.598zm4.515.516a1.6 1.6 0 1 1 0-3.2 1.6 1.6 0 0 1 0 3.2zm0-2.4a.8.8 0 1 0 0 1.6.8.8 0 0 0 0-1.6zM6.002 6.8a.8.8 0 1 0 0-1.6.8.8 0 0 0 0 1.6z" fill="#CAB180" fill-rule="nonzero"/>
</svg>
