<svg width="32" height="32" viewBox="0 0 32 32" xmlns="http://www.w3.org/2000/svg">
    <path d="M0 7.779v5.056c0 .489.397.886.887.886h1.45v14.401c0 2.063 1.75 3.741 3.9 3.741H25.9c2.15 0 3.9-1.678 3.9-3.74V13.72h1.312c.49 0 .887-.397.887-.886V7.778a.887.887 0 0 0-.887-.887H22.83c1.573-1.04 2.208-2.385 2.174-3.652C24.957 1.453 23.533 0 21.831 0c-2.564 0-4.679 3.517-5.762 5.742C14.985 3.516 12.87 0 10.306 0 8.604 0 7.18 1.453 7.133 3.239 7.1 4.506 7.734 5.85 9.308 6.89H.886A.887.887 0 0 0 0 7.78zM13.595 30.09H6.237c-1.174 0-2.128-.883-2.128-1.968V13.724l7.029-.003-.892 6.143a.888.888 0 0 0 1.44.813l1.91-1.567v10.98zm3.174 0h-1.4V17.654l.7-.575.7.575V30.09zm11.26-1.968c0 1.085-.956 1.968-2.128 1.968h-7.359V19.11l1.91 1.567a.886.886 0 0 0 1.44-.813L21 13.72l7.028.004v14.398zm2.199-19.457v3.283h-1.89c-.007 0-.012.004-.019.004h-7.576l-.476-3.287h9.96zM21.83 1.773c.75 0 1.379.678 1.4 1.513.036 1.344-1.469 2.975-5.693 3.484 1.132-2.39 2.894-4.997 4.293-4.997zm-3.357 6.892 1.334 9.19-3.177-2.607c-.024-.02-.053-.025-.08-.042a.873.873 0 0 0-.65-.131.838.838 0 0 0-.316.131c-.026.017-.055.022-.08.043l-3.177 2.607 1.335-9.19h4.81zm-9.568-5.38c.022-.834.65-1.512 1.4-1.512 1.4 0 3.162 2.607 4.294 4.997-4.225-.508-5.73-2.14-5.694-3.484zm-7.133 5.38h10.099l-.477 3.283-7.827.004c-.006 0-.011-.004-.018-.004H1.773V8.665z" fill="#CEC7BC" fill-rule="nonzero"/>
</svg>
