<svg width="16" height="16" viewBox="0 0 16 16" xmlns="http://www.w3.org/2000/svg">
    <g fill="#71BDA7" fill-rule="nonzero">
        <path d="M6.346 6.616a3.747 3.747 0 0 0-.828-.228c.039.24.107.536.228.827.332.8.885 1.188 1.691 1.188h.096v-.096c0-.806-.388-1.36-1.187-1.691zM8.467 10.808v.096h.095c1.166.036 1.762-.948 1.92-2.015-.24.039-.537.107-.828.228-.799.332-1.187.885-1.187 1.691zM6.346 9.117a3.747 3.747 0 0 0-.828-.228c.039.24.107.536.228.827.332.8.885 1.188 1.691 1.188h.096v-.096c0-.806-.388-1.36-1.187-1.691zM8.424 4.606A3.747 3.747 0 0 0 8 3.86c-.64.862-.919 1.982-.067 2.782L8 6.709l.067-.067c.57-.57.687-1.236.357-2.036zM8.467 8.307v.096h.095c.807 0 1.36-.389 1.692-1.188.12-.29.19-.587.228-.827-.24.039-.536.107-.828.228-.799.332-1.187.885-1.187 1.691z"/>
        <path d="M13.953 2.707 12.082 4.58a.467.467 0 1 1-.66-.66l1.87-1.872C5.615-4.356-4.352 5.623 2.048 13.293l1.871-1.872a.467.467 0 1 1 .66.66l-1.87 1.872c7.678 6.403 17.645-3.575 11.245-11.246zM11 7.904c.258 0 .467.21.467.467 0 .034-.004.85-.34 1.676-.073.182-.65 1.79-2.565 1.79h-.095v1.036c-.023.619-.911.618-.934 0v-1.035h-.095c-1.915 0-2.492-1.61-2.566-1.791a4.943 4.943 0 0 1-.339-1.676.47.47 0 0 1 .508-.466 3.661 3.661 0 0 1-.169-.36 4.943 4.943 0 0 1-.339-1.675c0-.258.21-.467.467-.467.032 0 .72.003 1.47.262-.04-.461.045-.947.255-1.443.346-.82.92-1.4.945-1.425a.467.467 0 0 1 .66 0c.024.024.599.604.945 1.425.21.496.295.982.254 1.443A4.988 4.988 0 0 1 11 5.403c.259 0 .468.21.468.467 0 .034-.004.85-.34 1.676a3.669 3.669 0 0 1-.168.359l.04-.001z"/>
    </g>
</svg>
