<svg width="16" height="16" viewBox="0 0 16 16" xmlns="http://www.w3.org/2000/svg">
    <g fill="#FFF" fill-rule="nonzero">
        <path d="M15.967 4.703c-.037-.85-.175-1.434-.372-1.94a3.904 3.904 0 0 0-.925-1.42 3.937 3.937 0 0 0-1.415-.921c-.51-.197-1.09-.334-1.94-.372C10.457.01 10.184 0 8.013 0 5.842 0 5.57.01 4.717.047c-.85.037-1.434.175-1.94.372a3.903 3.903 0 0 0-1.42.925c-.405.4-.721.884-.921 1.415C.239 3.27.102 3.85.064 4.7c-.04.856-.05 1.128-.05 3.3 0 2.172.01 2.444.047 3.297.037.85.175 1.434.372 1.94.203.538.519 1.02.925 1.42.4.405.884.721 1.415.921.51.197 1.091.334 1.941.372.853.038 1.125.047 3.297.047s2.444-.01 3.297-.047c.85-.038 1.434-.175 1.94-.372a4.092 4.092 0 0 0 2.341-2.34c.197-.51.334-1.091.372-1.941.037-.853.047-1.125.047-3.297s-.003-2.444-.04-3.297zm-1.44 6.531c-.035.782-.166 1.204-.275 1.485a2.654 2.654 0 0 1-1.52 1.519c-.28.109-.705.24-1.484.274-.843.038-1.096.047-3.23.047-2.135 0-2.391-.009-3.232-.047-.781-.034-1.203-.165-1.484-.274a2.462 2.462 0 0 1-.92-.597 2.487 2.487 0 0 1-.596-.92c-.11-.28-.24-.705-.275-1.483-.038-.844-.047-1.097-.047-3.232 0-2.134.01-2.39.047-3.231.034-.781.166-1.203.275-1.484.128-.347.331-.663.6-.92.26-.265.572-.468.919-.596.28-.11.706-.24 1.484-.275.844-.037 1.097-.047 3.231-.047 2.138 0 2.39.01 3.232.047.78.034 1.203.166 1.484.275.347.128.662.331.919.597.265.26.468.572.597.919.109.28.24.706.275 1.484.037.844.046 1.097.046 3.231 0 2.135-.009 2.385-.046 3.228z"/>
        <path d="M8.014 3.89a4.11 4.11 0 0 0 0 8.22 4.11 4.11 0 0 0 0-8.22zm0 6.776a2.666 2.666 0 1 1 0-5.333 2.666 2.666 0 0 1 0 5.333zM13.245 3.728a.96.96 0 1 1-1.919 0 .96.96 0 0 1 1.92 0z"/>
    </g>
</svg>
