<svg width="16" height="16" viewBox="0 0 16 16" xmlns="http://www.w3.org/2000/svg">
    <path d="M15.475.545A1.826 1.826 0 0 0 14.203 0L8.91.02h-.02a3.468 3.468 0 0 0-2.16.99L.53 7.17a1.84 1.84 0 0 0 0 2.584l5.715 5.716a1.83 1.83 0 0 0 1.312.525c.505 0 .95-.182 1.273-.545l6.139-6.14a3.341 3.341 0 0 0 1.01-2.16v-.02L16 1.857c0-.505-.182-.97-.525-1.313zm-5.352 6.887a1.577 1.577 0 0 1-1.575-1.575c0-.869.707-1.576 1.575-1.576s1.575.707 1.575 1.576c0 .868-.707 1.575-1.575 1.575z" fill="#CAB180" fill-rule="nonzero"/>
</svg>
