<svg width="14" height="14" viewBox="0 0 14 14" xmlns="http://www.w3.org/2000/svg">
    <path d="M10.075 14C7.621 14 5 13.098 2.951 11.049A10.047 10.047 0 0 1 0 3.925 3.922 3.922 0 0 1 3.925 0a.41.41 0 0 1 .38.258L6.064 4.65a.41.41 0 0 1-.229.533l-1.93.772a4.429 4.429 0 0 0 4.14 4.14l.772-1.93a.41.41 0 0 1 .533-.229l4.393 1.757a.41.41 0 0 1 .258.381A3.922 3.922 0 0 1 10.075 14zM3.652.832A3.103 3.103 0 0 0 .82 3.925c0 2.472.963 4.796 2.711 6.544a9.194 9.194 0 0 0 6.544 2.71 3.103 3.103 0 0 0 3.093-2.83L9.425 8.85 8.7 10.667a.41.41 0 0 1-.381.258 5.248 5.248 0 0 1-5.243-5.243.41.41 0 0 1 .258-.38l1.816-.727L3.652.832z" fill="#D65615" fill-rule="nonzero"/>
</svg>
