<?xml version="1.0" encoding="UTF-8"?>
<svg width="27px" height="32px" viewBox="0 0 27 32" version="1.1" xmlns="http://www.w3.org/2000/svg" xmlns:xlink="http://www.w3.org/1999/xlink">
    <title>84F81A84-CC9E-4B75-8E62-BB9FDE6E6295</title>
    <g id="desktop" stroke="none" stroke-width="1" fill="none" fill-rule="evenodd">
        <g id="lastnosti-produkta" transform="translate(-71.000000, -193.000000)" fill="#CAB180" fill-rule="nonzero">
            <g id="recycle" transform="translate(71.000000, 193.000000)">
                <path d="M4.3695,20.286875 C4.3695,18.7235 5.196,17.3165 6.48125,16.5403125 L6.1275,17.628875 C6.0208125,17.957125 6.2005,18.30975 6.52875,18.4164375 C6.5929375,18.43725 6.658,18.4471875 6.722,18.4471875 C6.9854375,18.4471875 7.2305,18.27925 7.3163125,18.015125 L8.088875,15.6375 C8.1955625,15.30925 8.015875,14.956625 7.687625,14.8499375 L5.31,14.077375 C4.9818125,13.9708125 4.629125,14.150375 4.5224375,14.478625 C4.41575,14.806875 4.5954375,15.1595 4.9236875,15.2661875 L5.7385,15.5309375 C4.1413125,16.5404375 3.1195,18.316625 3.1195,20.2868125 C3.1195,20.7986875 3.1884375,21.3055625 3.3243125,21.7933125 C3.4013125,22.06975 3.6524375,22.2506875 3.926,22.2506875 C3.9815,22.2506875 4.038,22.24325 4.0940625,22.2275625 C4.4265625,22.1349375 4.621,21.79025 4.528375,21.45775 C4.423,21.079375 4.3695,20.685375 4.3695,20.286875 L4.3695,20.286875 Z" id="Path"></path>
                <path d="M11.8661875,23.352 C11.036375,24.1966875 9.9276875,24.661875 8.7445,24.661875 C8.0491875,24.661875 7.3801875,24.5000625 6.7778125,24.1961875 L7.739625,24.061 C8.0814375,24.0129375 8.319625,23.696875 8.2715625,23.355125 C8.2235,23.01325 7.9071875,22.7756875 7.5656875,22.8231875 L5.09,23.171125 C4.7481875,23.2191875 4.51,23.53525 4.5580625,23.877 L4.906,26.3526875 C4.9499375,26.665 5.2175,26.89075 5.524125,26.89075 C5.5530625,26.89075 5.5824375,26.88875 5.611875,26.8845625 C5.9536875,26.8365 6.191875,26.5205 6.1438125,26.1786875 L6.0065625,25.20225 C6.8338125,25.6648125 7.769125,25.9118125 8.7444375,25.9118125 C10.2656875,25.9118125 11.6910625,25.3138125 12.75775,24.228 C12.9996875,23.98175 12.996125,23.5860625 12.7499375,23.344125 C12.50375,23.1021875 12.1080625,23.1056875 11.8661875,23.352 L11.8661875,23.352 Z" id="Path"></path>
                <path d="M15.1121875,19.566625 L14.3670625,20.17 C14.31525,17.651125 12.5966875,15.4688125 10.1503125,14.839125 C9.8158125,14.7529375 9.47525,14.9543125 9.38925,15.2885625 C9.3031875,15.622875 9.5044375,15.9635625 9.8386875,16.049625 C11.7029375,16.5295 13.0241875,18.16925 13.1141875,20.0788125 L12.475,19.2895 C12.25775,19.0211875 11.8641875,18.979875 11.596,19.1970625 C11.32775,19.4143125 11.286375,19.8078125 11.5035625,20.0760625 L13.076875,22.0189375 C13.200375,22.1715 13.380875,22.2506875 13.5629375,22.2506875 C13.7010625,22.2506875 13.8401875,22.205125 13.955875,22.111375 L15.89875,20.5380625 C16.167,20.3208125 16.208375,19.9273125 15.9911875,19.6590625 C15.774,19.3906875 15.3804375,19.3494375 15.1121875,19.566625 L15.1121875,19.566625 Z" id="Path"></path>
                <circle id="Oval" cx="26.25" cy="20.4375" r="1"></circle>
                <path d="M9.875,2.5 C8.4448125,2.5 7.28125,3.6635625 7.28125,5.09375 C7.28125,6.5239375 8.4448125,7.6875 9.875,7.6875 C11.3051875,7.6875 12.46875,6.5239375 12.46875,5.09375 C12.46875,3.6635625 11.3051875,2.5 9.875,2.5 Z M9.875,6.4375 C9.1340625,6.4375 8.53125,5.8346875 8.53125,5.09375 C8.53125,4.3528125 9.1340625,3.75 9.875,3.75 C10.6159375,3.75 11.21875,4.3528125 11.21875,5.09375 C11.21875,5.8346875 10.6159375,6.4375 9.875,6.4375 Z" id="Shape"></path>
                <path d="M26.25,18.25 C26.594375,18.25 26.875,17.969375 26.875,17.625 L26.875,9.5625 C26.875,9.4794375 26.8578125,9.39725 26.8259375,9.32125 C26.8254375,9.319875 26.8255,9.31875 26.824875,9.31725 L23.00925,0.3778125 C22.911,0.1475 22.6848125,0 22.434375,0 L4.375,0 C4.12325,0 3.8960625,0.1510625 3.7986875,0.3831875 L0.0504375,9.3164375 C0.0180625,9.3919375 0,9.475125 0,9.5625 L0,31.375 C0,31.720125 0.2798125,32 0.625,32 L26.25,32 C26.414375,32 26.575625,31.933125 26.691875,31.8168125 C26.808125,31.700625 26.875,31.539375 26.875,31.375 L26.875,23.25 C26.875,22.905625 26.594375,22.625 26.25,22.625 C25.905625,22.625 25.625,22.905625 25.625,23.25 L25.625,30.75 L19.25,30.75 L19.25,10.1875 L25.625,10.1875 L25.625,17.625 C25.625,17.969375 25.905625,18.25 26.25,18.25 Z M18,30.75 L1.25,30.75 L1.25,10.1875 L18,10.1875 L18,30.75 Z M18.212125,8.9375 L1.5650625,8.9375 L4.7905625,1.25 L21.491375,1.25 L18.212125,8.9375 Z M19.571125,8.9375 L22.4375,2.2179375 L25.303875,8.9375 L19.571125,8.9375 Z" id="Shape"></path>
            </g>
        </g>
    </g>
</svg>