<svg width="36" height="26" viewBox="0 0 36 26" xmlns="http://www.w3.org/2000/svg">
    <g fill="#CEC7BC" fill-rule="nonzero">
        <path d="M8.727 4.011H3.034a.807.807 0 0 0 0 1.615h5.693a.807.807 0 0 0 0-1.615zM6.432 9.591a.807.807 0 0 0-.807-.807H.807a.807.807 0 0 0 0 1.614h4.818a.807.807 0 0 0 .807-.807zM2.104 13.697a.807.807 0 0 0 0 1.614H4.59a.807.807 0 0 0 0-1.614H2.104zM9.461 15.28a.806.806 0 0 0 .604.271h7.264a.796.796 0 0 0 .273-.05c.035-.014.064-.035.096-.052.041-.021.085-.036.123-.065l3.495-2.688a.786.786 0 0 0 .276-.469c.01-.038.03-.072.035-.113l.8-6.748.002-.045a.804.804 0 0 0-.033-.32.806.806 0 0 0-.76-.549l-7.23-.034a.76.76 0 0 0-.497.168l-3.53 2.724c-.008.006-.011.015-.019.02a.805.805 0 0 0-.14.163c-.018.025-.041.044-.056.07a.83.83 0 0 0-.07.21c-.006.026-.02.05-.024.077 0 .002 0 .003-.002.004l-.807 6.796a.814.814 0 0 0 .2.63zm10.599-3.654-1.703 1.31.54-4.555 1.701-1.309-.538 4.554zm-5.384-5.593 4.598.021-1.412 1.087h-4.623l1.437-1.108zM11.59 8.755h5.639l-.615 5.182h-5.64l.616-5.182z"/>
        <path d="M32.845 7.375a.807.807 0 0 0-.735-.474h-6.038V2.809C26.072 1.259 24.878 0 23.41 0h-17.5C4.678 0 3.588.918 3.322 2.183a.806.806 0 1 0 1.578.332c.11-.521.535-.9 1.01-.9h17.5c.578 0 1.049.535 1.049 1.194v17.74H12.68a4.043 4.043 0 0 0-3.954-3.228 4.043 4.043 0 0 0-3.954 3.229H3.488c-.578 0-1.049-.54-1.053-1.124l.121-1.219a.808.808 0 0 0-1.606-.16l-.125 1.3c0 1.553 1.194 2.817 2.663 2.817h1.285a4.043 4.043 0 0 0 3.954 3.229c1.949 0 3.579-1.39 3.954-3.229h13.594a4.043 4.043 0 0 0 3.954 3.229c1.95 0 3.579-1.39 3.954-3.229h1.01a.807.807 0 0 0 .807-.807v-6.853a.804.804 0 0 0-.072-.333l-3.083-6.796zM8.727 23.778a2.424 2.424 0 0 1-2.422-2.421 2.424 2.424 0 0 1 2.422-2.422 2.424 2.424 0 0 1 2.421 2.422 2.424 2.424 0 0 1-2.421 2.421zM31.59 8.515l2.306 5.084a6.674 6.674 0 0 1-5.179-5.084h2.873zm-1.361 15.263a2.424 2.424 0 0 1-2.421-2.421 2.424 2.424 0 0 1 2.421-2.422 2.424 2.424 0 0 1 2.421 2.422 2.424 2.424 0 0 1-2.421 2.421zm4.157-7.003h-.358c-.315 0-.57.361-.57.807v.353c0 .446.255.808.57.808h.358v1.808h-.203a4.043 4.043 0 0 0-3.954-3.229 4.043 4.043 0 0 0-3.954 3.229h-.203V8.515h.995c.63 3.621 3.656 6.425 7.318 6.788v1.472z"/>
        <circle cx="8.727" cy="21.349" r="1"/>
        <circle cx="30.229" cy="21.349" r="1"/>
    </g>
</svg>
