<svg width="20" height="24" viewBox="0 0 20 24" xmlns="http://www.w3.org/2000/svg">
    <path d="M19.018 19.791 17.946 6.286a1.688 1.688 0 0 0-1.675-1.552h-2.117V4.64A4.644 4.644 0 0 0 9.514 0a4.644 4.644 0 0 0-4.638 4.64v.094H2.759c-.873 0-1.609.682-1.676 1.55L.011 19.794a3.92 3.92 0 0 0 1.03 2.954A3.92 3.92 0 0 0 3.908 24h11.214a3.92 3.92 0 0 0 2.867-1.252 3.92 3.92 0 0 0 1.029-2.957zM6.281 4.64a3.237 3.237 0 0 1 3.234-3.233 3.237 3.237 0 0 1 3.233 3.233v.095H6.281V4.64zm10.676 17.153a2.476 2.476 0 0 1-1.835.802H3.908a2.476 2.476 0 0 1-1.836-.802 2.475 2.475 0 0 1-.66-1.89L2.486 6.395a.276.276 0 0 1 .274-.254h2.117v1.731a.703.703 0 0 0 1.405 0v-1.73h6.467v1.73a.703.703 0 0 0 1.406 0v-1.73h2.117c.142 0 .263.11.274.254l1.071 13.506a2.476 2.476 0 0 1-.659 1.891z" fill="#292828" fill-rule="nonzero"/>
</svg>
