<svg width="14" height="14" viewBox="0 0 14 14" xmlns="http://www.w3.org/2000/svg">
    <path d="M11.95 2.05A6.954 6.954 0 0 0 7 0C5.13 0 3.372.728 2.05 2.05A6.954 6.954 0 0 0 0 7c0 1.87.728 3.628 2.05 4.95A6.954 6.954 0 0 0 7 14c1.87 0 3.628-.728 4.95-2.05A6.954 6.954 0 0 0 14 7c0-1.87-.728-3.628-2.05-4.95zM3.51 12.097A3.534 3.534 0 0 1 7 9.167a3.534 3.534 0 0 1 3.49 2.93A6.145 6.145 0 0 1 7 13.18c-1.294 0-2.497-.4-3.49-1.083zM4.773 6.12c0-1.227.999-2.225 2.226-2.225 1.227 0 2.226.998 2.226 2.225A2.228 2.228 0 0 1 7 8.347a2.228 2.228 0 0 1-2.226-2.226zm6.427 5.407A4.36 4.36 0 0 0 8.66 8.674a3.046 3.046 0 1 0-3.32 0A4.36 4.36 0 0 0 2.8 11.528 6.164 6.164 0 0 1 .82 7 6.187 6.187 0 0 1 7 .82 6.187 6.187 0 0 1 13.18 7a6.164 6.164 0 0 1-1.979 4.528z" fill="#D65615" fill-rule="nonzero"/>
</svg>
